<svg width="981" height="397" viewBox="0 0 981 397" fill="none" xmlns="http://www.w3.org/2000/svg">
<path d="M131 183V78H236V93H161V123H221V138H161V183H131ZM266 183V168H251V108H281V168H326V108H356V183H266ZM416 123H431V138H416V183H386V108H416V123ZM476 108V123H431V108H476ZM491 183V78H521V138H551V123H566V108H596V123H581V138H566V153H581V168H596V183H566V168H551V153H521V183H491ZM626 183V168H611V153H626V138H686V123H626V108H701V123H716V183H626ZM641 168H686V153H641V168ZM731 183V108H821V123H836V183H806V123H761V183H731ZM266 303V288H251V213H266V198H341V213H356V288H341V303H266ZM281 288H326V213H281V288ZM386 303V288H416V213H401V198H446V288H476V303H386ZM491 303V198H521V258H551V243H566V228H596V243H581V258H566V273H581V288H596V303H566V288H551V273H521V303H491ZM626 303V288H611V273H626V258H686V243H626V228H701V243H716V303H626ZM641 288H686V273H641V288ZM746 318V303H806V288H746V273H731V228H761V273H806V228H836V303H821V318H746Z" fill="black"/>
</svg>
