<svg width="671" height="94" viewBox="0 0 671 94" fill="none" xmlns="http://www.w3.org/2000/svg">
<path d="M5 72.9L0.3 7L44.4 5.6L44.1 12.3L23 14.8L20.1 38.5L38.7 38.3L39.2 47.3L19.2 45.7L16 72.4L5 72.9ZM67.8219 74.3C67.4219 74.3 66.7552 74.2 65.8219 74C64.8885 73.8667 64.2219 73.7 63.8219 73.5C62.2885 71.6333 60.9885 69.1333 59.9219 66C58.8552 62.8 57.9885 59.3 57.3219 55.5C56.6552 51.6333 56.1552 47.7 55.8219 43.7C55.4885 39.7 55.2552 35.9 55.1219 32.3C54.9885 28.6333 54.9219 25.4667 54.9219 22.8L74.9219 21.3C74.3885 26.6333 73.9552 31.3333 73.6219 35.4C73.2885 39.4667 73.1219 43.3667 73.1219 47.1C73.1219 50.1 73.2219 53.1333 73.4219 56.2C73.6885 59.2 74.0885 62.5333 74.6219 66.2C77.5552 65.5333 79.9885 64.2667 81.9219 62.4C83.9219 60.4667 85.5219 58.1667 86.7219 55.5C87.9885 52.7667 88.8885 49.9 89.4219 46.9C89.9552 43.9 90.2219 40.9667 90.2219 38.1C90.2219 37.5667 90.1885 36.9333 90.1219 36.2C90.1219 35.4 90.0219 34.1 89.8219 32.3C89.6885 30.4333 89.4219 27.6667 89.0219 24L110.422 20.7L104.022 72.6L94.1219 73.5L92.1219 54.5H91.4219C88.7552 61.5667 85.4552 66.6333 81.5219 69.7C77.5885 72.7667 73.0219 74.3 67.8219 74.3ZM129.065 73.5L123.965 23.9L145.365 20.6L143.365 36.6H144.065C146.598 31.0667 149.598 26.7333 153.065 23.6C156.598 20.4 160.398 18.6333 164.465 18.3L161.665 39.6C160.598 39.4667 159.565 39.3667 158.565 39.3C157.632 39.1667 156.698 39.1 155.765 39.1C152.898 39.1 150.432 39.7333 148.365 41C146.365 42.2667 144.698 44.5333 143.365 47.8C142.098 51 141.098 55.5 140.365 61.3L138.965 72.6L129.065 73.5ZM176.538 73.5L171.438 3.7L192.838 0.399998L189.038 43.6L210.338 18.4L217.038 23.6L201.538 39.8L223.237 72.2L204.238 73.5L191.738 50.1L188.138 53.5L186.438 72.6L176.538 73.5ZM237.703 74.3C237.303 74.3 236.87 74.3 236.403 74.3C236.003 74.3 235.603 74.2667 235.203 74.2C232.936 72.6667 231.103 70.4 229.703 67.4C228.37 64.3333 227.703 61.1667 227.703 57.9C227.703 55.1667 228.336 52.9 229.603 51.1C230.87 49.3 233.136 47.9667 236.403 47.1C239.736 46.1667 244.403 45.7 250.403 45.7C251.87 45.7 253.436 45.7667 255.103 45.9C256.77 45.9667 258.536 46.1333 260.403 46.4L260.203 44.2C259.936 41.4667 258.636 39.3333 256.303 37.8C254.036 36.2667 251.336 35.5 248.203 35.5C246.47 35.5 244.636 35.7667 242.703 36.3C240.836 36.8333 238.97 37.6667 237.103 38.8L232.703 24.3C234.903 23.3667 237.703 22.5667 241.103 21.9C244.57 21.1667 248.136 20.8 251.803 20.8C256.67 20.8 260.903 21.5 264.503 22.9C268.17 24.3 271.003 26.5 273.003 29.5C275.07 32.4333 276.103 36.3333 276.103 41.2C276.103 41.8 276.07 42.5 276.003 43.3C276.003 44.1 275.97 44.6667 275.903 45L273.103 72.6L263.203 73.5L261.703 59H260.903C258.703 63.6667 255.603 67.4 251.603 70.2C247.67 72.9333 243.036 74.3 237.703 74.3ZM245.203 63.1C246.67 62.8333 248.403 62.3667 250.403 61.7C252.47 60.9667 254.436 59.7667 256.303 58.1C258.236 56.3667 259.736 53.8667 260.803 50.6C259.936 50.6 259.07 50.6 258.203 50.6C257.336 50.5333 256.436 50.5 255.503 50.5C253.436 50.5 251.57 50.5333 249.903 50.6C248.236 50.6667 246.503 50.8667 244.703 51.2C244.436 51.8 244.136 52.5333 243.803 53.4C243.47 54.2667 243.303 55.3667 243.303 56.7C243.303 57.8333 243.503 59.0667 243.903 60.4C244.303 61.6667 244.736 62.5667 245.203 63.1ZM293.811 73.5L288.711 23.9L310.111 20.6L307.911 38.2H308.811C311.411 32.5333 314.411 28.0333 317.811 24.7C321.211 21.3667 324.778 19.7 328.511 19.7C329.778 19.7 331.011 19.9 332.211 20.3C333.744 22.1667 335.044 24.7333 336.111 28C337.178 31.2 338.044 34.7667 338.711 38.7C339.378 42.6333 339.878 46.6667 340.211 50.8C340.544 54.8667 340.778 58.7667 340.911 62.5C341.044 66.1667 341.111 69.3333 341.111 72L323.111 73.5C323.111 67.0333 323.044 61.4333 322.911 56.7C322.778 51.9667 322.578 47.6333 322.311 43.7C322.111 39.7 321.811 35.6667 321.411 31.6C320.144 32.0667 318.678 32.9333 317.011 34.2C315.411 35.4667 313.778 37.5333 312.111 40.4C310.444 43.2667 308.878 47.3 307.411 52.5C305.944 57.6333 304.711 64.3333 303.711 72.6L293.811 73.5ZM408.207 74.4C402.94 74.4 398.474 73.7667 394.807 72.5C391.14 71.3 388.174 69.7667 385.907 67.9C385.307 64.9667 384.874 62.1333 384.607 59.4C384.34 56.6 384.207 53.9 384.207 51.3C384.207 45.3667 384.807 39.8333 386.007 34.7C387.207 29.5667 388.807 24.9333 390.807 20.8C392.874 16.6 395.14 13 397.607 10C400.074 7 402.54 4.66666 405.007 2.99999C410.007 5.06666 414.54 8.4 418.607 13C422.74 17.6 426.007 23.1667 428.407 29.7C430.874 36.1667 432.107 43.3667 432.107 51.3C432.107 56.3667 431.474 60.6333 430.207 64.1C428.94 67.5 426.574 70.0667 423.107 71.8C419.707 73.5333 414.74 74.4 408.207 74.4ZM402.407 64.7C405.207 64.7 408.007 64.5 410.807 64.1C413.607 63.7 416.074 63.1333 418.207 62.4C418.94 59.3333 419.407 56.6333 419.607 54.3C419.874 51.9667 420.007 49.4667 420.007 46.8C420.007 41.5333 419.574 36.7 418.707 32.3C417.84 27.9 416.574 23.9333 414.907 20.4C410.574 24.4 406.874 28.8333 403.807 33.7C400.74 38.5 398.374 43.5 396.707 48.7C395.107 53.9 394.307 59 394.307 64C395.507 64.2667 396.774 64.4667 398.107 64.6C399.507 64.6667 400.94 64.7 402.407 64.7ZM449.194 73.5L444.094 3.7L465.494 0.399998L459.094 72.6L449.194 73.5ZM484.545 73.5L479.445 3.7L500.845 0.399998L497.045 43.6L518.345 18.4L525.045 23.6L509.545 39.8L531.245 72.2L512.245 73.5L499.745 50.1L496.145 53.5L494.445 72.6L484.545 73.5ZM545.711 74.3C545.311 74.3 544.878 74.3 544.411 74.3C544.011 74.3 543.611 74.2667 543.211 74.2C540.944 72.6667 539.111 70.4 537.711 67.4C536.378 64.3333 535.711 61.1667 535.711 57.9C535.711 55.1667 536.344 52.9 537.611 51.1C538.878 49.3 541.144 47.9667 544.411 47.1C547.744 46.1667 552.411 45.7 558.411 45.7C559.878 45.7 561.444 45.7667 563.111 45.9C564.778 45.9667 566.544 46.1333 568.411 46.4L568.211 44.2C567.944 41.4667 566.644 39.3333 564.311 37.8C562.044 36.2667 559.344 35.5 556.211 35.5C554.478 35.5 552.644 35.7667 550.711 36.3C548.844 36.8333 546.978 37.6667 545.111 38.8L540.711 24.3C542.911 23.3667 545.711 22.5667 549.111 21.9C552.578 21.1667 556.144 20.8 559.811 20.8C564.678 20.8 568.911 21.5 572.511 22.9C576.178 24.3 579.011 26.5 581.011 29.5C583.078 32.4333 584.111 36.3333 584.111 41.2C584.111 41.8 584.078 42.5 584.011 43.3C584.011 44.1 583.978 44.6667 583.911 45L581.111 72.6L571.211 73.5L569.711 59H568.911C566.711 63.6667 563.611 67.4 559.611 70.2C555.678 72.9333 551.044 74.3 545.711 74.3ZM553.211 63.1C554.678 62.8333 556.411 62.3667 558.411 61.7C560.478 60.9667 562.444 59.7667 564.311 58.1C566.244 56.3667 567.744 53.8667 568.811 50.6C567.944 50.6 567.078 50.6 566.211 50.6C565.344 50.5333 564.444 50.5 563.511 50.5C561.444 50.5 559.578 50.5333 557.911 50.6C556.244 50.6667 554.511 50.8667 552.711 51.2C552.444 51.8 552.144 52.5333 551.811 53.4C551.478 54.2667 551.311 55.3667 551.311 56.7C551.311 57.8333 551.511 59.0667 551.911 60.4C552.311 61.6667 552.744 62.5667 553.211 63.1ZM605.219 93.2C603.285 93.2 601.285 92.8333 599.219 92.1C597.219 91.4333 595.219 90.3 593.219 88.7L596.219 83.6C598.419 84.4 600.585 84.8 602.719 84.8C605.652 84.8 608.219 83.9667 610.419 82.3C612.685 80.6333 614.119 77.9667 614.719 74.3L594.019 24L615.419 20.7L622.019 59.1H622.819L635.719 21L643.819 23.2L622.119 77.8C620.585 81.7333 618.985 84.8 617.319 87C615.719 89.2667 613.952 90.8667 612.019 91.8C610.085 92.7333 607.819 93.2 605.219 93.2Z" fill="#8787FF" fill-opacity="0.84"/>
<path d="M661.159 73C657.759 73 655.359 72.1333 653.959 70.4C652.559 68.6667 651.859 66.6 651.859 64.2C651.859 61.8 652.559 59.7333 653.959 58C655.359 56.2667 657.759 55.4 661.159 55.4C664.559 55.4 666.959 56.2667 668.359 58C669.759 59.7333 670.459 61.8 670.459 64.2C670.459 66.6 669.759 68.6667 668.359 70.4C666.959 72.1333 664.559 73 661.159 73Z" fill="#D35E5E"/>
</svg>
